<svg width="64" height="65" viewBox="0 0 64 65" fill="none" xmlns="http://www.w3.org/2000/svg"><path d="M60.5295 9.02441H31.9457C30.5458 9.02441 29.4752 10.0831 29.4752 11.4675V35.9625C29.4752 37.3469 30.5458 38.4055 31.9457 38.4055H45.4262L53.0966 44.8532C53.5907 45.4232 54.579 45.0975 54.579 44.3645V38.4055H60.5295C61.9294 38.4055 63 37.3469 63 35.9625V11.4675C63 10.0831 61.9294 9.02441 60.5295 9.02441Z" stroke="#404145" stroke-width="1.6" stroke-miterlimit="10" stroke-linecap="round"/><path d="M45.847 14.3244C45.972 14.3244 46.0775 14.3674 46.1634 14.4533C46.2493 14.5392 46.2923 14.6447 46.2923 14.7697V16.6682C47.6126 16.7228 48.8001 17.0002 49.8548 17.5002C50.9173 18.0002 51.7103 18.6564 52.2337 19.4689C52.265 19.508 52.2806 19.5705 52.2806 19.6564C52.2806 19.9221 52.1282 20.0549 51.8235 20.0549C51.6282 20.0549 51.4876 19.9846 51.4017 19.8439C50.9485 19.1408 50.2728 18.5822 49.3743 18.1682C48.4837 17.7463 47.4603 17.508 46.304 17.4533L46.3157 23.3244C47.1517 23.3791 47.9603 23.4572 48.7415 23.5588C49.5306 23.6603 50.2415 23.8244 50.8743 24.051C51.5071 24.2697 52.0071 24.5861 52.3743 25.0002C52.7493 25.4142 52.9368 25.9611 52.9368 26.6408C52.9368 27.3205 52.7493 27.9103 52.3743 28.4103C51.9993 28.9025 51.4954 29.3127 50.8626 29.6408C50.2298 29.9689 49.5228 30.2189 48.7415 30.3908C47.9603 30.5549 47.1595 30.6486 46.3392 30.6721V32.3596C46.3392 32.6486 46.1946 32.7932 45.9056 32.7932C45.7806 32.7932 45.6751 32.7502 45.5892 32.6642C45.5032 32.5861 45.4603 32.4846 45.4603 32.3596V30.6721C43.8665 30.633 42.4368 30.3517 41.1712 29.8283C39.9056 29.3049 38.9642 28.551 38.347 27.5666C38.3157 27.5041 38.3001 27.4416 38.3001 27.3791C38.3001 27.2697 38.347 27.1799 38.4407 27.1096C38.5345 27.0314 38.6439 26.9924 38.7689 26.9924C38.9564 26.9924 39.0931 27.0627 39.179 27.2033C39.7181 28.0705 40.5384 28.7267 41.64 29.1721C42.7415 29.6174 44.011 29.8596 45.4485 29.8986L45.4368 23.9103C44.5853 23.8478 43.7493 23.7697 42.929 23.676C42.1165 23.5822 41.3821 23.4299 40.7259 23.2189C40.0696 23.0002 39.5462 22.6877 39.1556 22.2814C38.765 21.8674 38.5696 21.3127 38.5696 20.6174C38.5696 20.2502 38.636 19.926 38.7689 19.6447C38.9095 19.3557 39.0775 19.0978 39.2728 18.8713C39.8665 18.1838 40.7259 17.6525 41.8509 17.2775C42.9759 16.9025 44.1634 16.6994 45.4134 16.6682V14.7697C45.4134 14.6525 45.4525 14.551 45.5306 14.465C45.6165 14.3713 45.722 14.3244 45.847 14.3244ZM45.4368 23.2658L45.4251 17.4416C44.7767 17.465 44.1048 17.5432 43.4095 17.676C42.722 17.801 42.0814 17.9924 41.4876 18.2502C40.9017 18.5002 40.4251 18.8244 40.0579 19.2228C39.6907 19.6135 39.5071 20.0783 39.5071 20.6174C39.5071 21.1564 39.6673 21.59 39.9876 21.9182C40.3157 22.2463 40.7571 22.5002 41.3118 22.6799C41.8743 22.8517 42.511 22.9807 43.222 23.0666C43.9329 23.1447 44.6712 23.2111 45.4368 23.2658ZM46.3157 23.9689L46.3275 29.8986C47.015 29.8752 47.6946 29.7971 48.3665 29.6642C49.0384 29.5314 49.6478 29.3361 50.1946 29.0783C50.7415 28.8127 51.179 28.4807 51.5071 28.0822C51.8353 27.676 51.9993 27.1955 51.9993 26.6408C51.9993 25.9299 51.7298 25.3986 51.1907 25.0471C50.6595 24.6877 49.9603 24.4377 49.0931 24.2971C48.2337 24.1486 47.3079 24.0392 46.3157 23.9689Z" fill="#404145"/><path fill-rule="evenodd" clip-rule="evenodd" d="M39.1556 22.2814C39.5462 22.6877 40.0697 23.0002 40.7259 23.2189C41.3822 23.4299 42.1165 23.5822 42.929 23.676C43.7493 23.7697 44.5853 23.8479 45.4368 23.9104L45.4486 29.8986C45.3477 29.8959 45.2477 29.8922 45.1485 29.8874C43.8338 29.8246 42.6643 29.5861 41.64 29.1721C40.5384 28.7268 39.7181 28.0705 39.179 27.2033C39.0931 27.0627 38.9564 26.9924 38.7689 26.9924C38.6439 26.9924 38.5345 27.0314 38.4407 27.1096C38.347 27.1799 38.3001 27.2697 38.3001 27.3791C38.3001 27.4416 38.3157 27.5041 38.347 27.5666C38.9642 28.551 39.9056 29.3049 41.1712 29.8283C42.4368 30.3518 43.8665 30.633 45.4603 30.6721V32.3596C45.4603 32.4846 45.5032 32.5861 45.5892 32.6643C45.6751 32.7502 45.7806 32.7932 45.9056 32.7932C46.1947 32.7932 46.3392 32.6486 46.3392 32.3596V30.6721C47.1595 30.6486 47.9603 30.5549 48.7415 30.3908C49.5228 30.2189 50.2298 29.9689 50.8626 29.6408C51.4954 29.3127 51.9993 28.9025 52.3743 28.4104C52.7493 27.9104 52.9368 27.3205 52.9368 26.6408C52.9368 25.9611 52.7493 25.4143 52.3743 25.0002C52.0072 24.5861 51.5072 24.2697 50.8743 24.051C50.2415 23.8244 49.5306 23.6604 48.7415 23.5588C47.9603 23.4572 47.1517 23.3791 46.3157 23.3244L46.304 17.4533C46.4051 17.4581 46.5051 17.4643 46.6041 17.4719C47.6381 17.551 48.5615 17.7832 49.3743 18.1682C50.2728 18.5822 50.9486 19.1408 51.4017 19.8439C51.4876 19.9846 51.6282 20.0549 51.8236 20.0549C52.1282 20.0549 52.2806 19.9221 52.2806 19.6564C52.2806 19.5705 52.265 19.508 52.2337 19.4689C51.7103 18.6564 50.9173 18.0002 49.8548 17.5002C48.8001 17.0002 47.6126 16.7229 46.2923 16.6682V14.7697C46.2923 14.6447 46.2493 14.5393 46.1634 14.4533C46.0775 14.3674 45.972 14.3244 45.847 14.3244C45.722 14.3244 45.6165 14.3713 45.5306 14.465C45.4525 14.551 45.4134 14.6525 45.4134 14.7697V16.6682C44.1634 16.6994 42.9759 16.9025 41.8509 17.2775C40.7259 17.6525 39.8665 18.1838 39.2728 18.8713C39.0775 19.0979 38.9095 19.3557 38.7689 19.6447C38.6361 19.926 38.5697 20.2502 38.5697 20.6174C38.5697 21.3127 38.765 21.8674 39.1556 22.2814ZM45.1134 16.3787C43.9418 16.4331 42.8223 16.6375 41.756 16.9929C40.5951 17.3799 39.684 17.9362 39.0457 18.6752C38.8323 18.9228 38.6502 19.2029 38.4991 19.5135L38.4976 19.5166C38.3428 19.8445 38.2697 20.2138 38.2697 20.6174C38.2697 21.3714 38.4831 22.0058 38.9374 22.4873L38.9393 22.4894C39.3704 22.9377 39.939 23.2729 40.631 23.5036L40.6341 23.5046C41.3121 23.7225 42.0661 23.8784 42.8946 23.974C43.6298 24.058 44.3776 24.1296 45.1374 24.1886L45.148 29.587C43.8668 29.5244 42.7363 29.2917 41.7524 28.8939C40.7002 28.4686 39.9346 27.8501 39.4343 27.0458C39.2855 26.8031 39.0434 26.6924 38.7689 26.6924C38.5781 26.6924 38.4024 26.7533 38.2545 26.8743C38.0952 26.9964 38.0001 27.1704 38.0001 27.3791C38.0001 27.4934 38.0291 27.6016 38.0787 27.7008L38.0851 27.7137L38.0928 27.726C38.7487 28.7721 39.7439 29.5627 41.0566 30.1055C42.2825 30.6126 43.6517 30.8966 45.1603 30.9621V32.3596C45.1603 32.5595 45.232 32.7423 45.3821 32.8813C45.5252 33.022 45.7059 33.0932 45.9056 33.0932C46.0964 33.0932 46.2945 33.0453 46.4429 32.8969C46.5913 32.7485 46.6392 32.5503 46.6392 32.3596V30.9607C47.3755 30.9248 48.0969 30.8327 48.8032 30.6844L48.806 30.6838C49.6098 30.507 50.342 30.2487 51.0007 29.9071C51.6669 29.5617 52.2073 29.1246 52.613 28.5922L52.6143 28.5904C53.0317 28.0338 53.2368 27.3794 53.2368 26.6408C53.2368 25.9042 53.0323 25.2804 52.5978 24.8C52.1903 24.341 51.644 23.9998 50.9739 23.768C50.318 23.5333 49.5861 23.365 48.7802 23.2613M45.1134 16.3787V14.7697C45.1134 14.5787 45.1798 14.4049 45.3086 14.2632L45.3094 14.2623C45.4511 14.1078 45.6363 14.0244 45.847 14.0244C46.049 14.0244 46.2316 14.0972 46.3755 14.2412C46.5195 14.3852 46.5923 14.5677 46.5923 14.7697V16.3839C47.834 16.4663 48.9654 16.7466 49.9829 17.2289C51.081 17.7458 51.9199 18.4324 52.4797 19.2969C52.5645 19.4127 52.5806 19.5513 52.5806 19.6564C52.5806 19.847 52.524 20.0414 52.3635 20.1814C52.2108 20.3145 52.0128 20.3549 51.8236 20.3549C51.5477 20.3549 51.2993 20.249 51.1478 20.0038C50.7308 19.358 50.1038 18.8347 49.2488 18.4406L49.2459 18.4393C48.477 18.0751 47.598 17.8513 46.6047 17.7728L46.6152 23.0443C47.3581 23.0979 48.0799 23.1703 48.7802 23.2613M43.4658 17.9706L43.4632 17.9711C42.7965 18.0923 42.1782 18.2774 41.6071 18.5254L41.6054 18.5261C41.0517 18.7624 40.6123 19.0639 40.2785 19.4262L40.2765 19.4283C39.962 19.763 39.8072 20.1542 39.8072 20.6174C39.8072 21.0921 39.9457 21.4451 40.201 21.7073C40.4876 21.9934 40.883 22.2253 41.4019 22.3937C41.9434 22.559 42.561 22.6844 43.2564 22.7686C43.8627 22.8352 44.4893 22.8932 45.1362 22.9428L45.1258 17.7568C44.5899 17.7905 44.0366 17.8616 43.4658 17.9706ZM45.1252 17.4562C45.2257 17.4501 45.3257 17.4452 45.4251 17.4416L45.4368 23.2658C45.3364 23.2586 45.2363 23.2513 45.1368 23.2437C44.4779 23.1935 43.8396 23.1345 43.222 23.0666C42.5111 22.9807 41.8743 22.8518 41.3118 22.6799C40.7572 22.5002 40.3157 22.2463 39.9876 21.9182C39.6673 21.59 39.5072 21.1564 39.5072 20.6174C39.5072 20.0783 39.6907 19.6135 40.0579 19.2229C40.4251 18.8244 40.9017 18.5002 41.4876 18.2502C42.0814 17.9924 42.722 17.801 43.4095 17.676C43.9982 17.5635 44.5701 17.4903 45.1252 17.4562ZM51.0227 25.2956C50.5382 24.9679 49.8842 24.7293 49.0451 24.5932L49.042 24.5927C48.287 24.4623 47.4786 24.3622 46.6164 24.2926L46.6268 29.5844C47.1929 29.5512 47.7534 29.4797 48.3084 29.37C48.9586 29.2414 49.5436 29.0534 50.0651 28.8077C50.5787 28.558 50.9787 28.2516 51.2746 27.8927C51.5563 27.5435 51.6993 27.131 51.6993 26.6408C51.6993 26.0187 51.471 25.588 51.0269 25.2984L51.0227 25.2956ZM51.5072 28.0822C51.179 28.4807 50.7415 28.8127 50.1947 29.0783C49.6478 29.3361 49.0384 29.5314 48.3665 29.6643C47.7925 29.7777 47.2128 29.8513 46.6274 29.8849C46.5276 29.8906 46.4276 29.8952 46.3275 29.8986L46.3157 23.9689C46.4164 23.9761 46.5165 23.9836 46.6158 23.9916C47.4952 24.0619 48.3209 24.1637 49.0931 24.2971C49.9603 24.4377 50.6595 24.6877 51.1907 25.0471C51.7298 25.3986 51.9993 25.9299 51.9993 26.6408C51.9993 27.1955 51.8353 27.676 51.5072 28.0822Z" fill="#404145"/><path d="M28.4406 20.9054H3.47039C2.07043 20.9054 0.999866 21.9641 0.999866 23.3485V47.8434C0.999866 49.2279 2.07043 50.2865 3.47039 50.2865H9.42092V56.2455C9.42092 56.9784 10.4091 57.3042 10.9032 56.7341L18.5737 50.2865H32.0541C33.4541 50.2865 34.5247 49.2279 34.5247 47.8434V38.3724" stroke="#404145" stroke-width="1.6" stroke-miterlimit="10" stroke-linecap="round"/><path d="M17.0262 43.5245C21.5859 43.5245 25.2822 39.8774 25.2822 35.3786C25.2822 30.8798 21.5859 27.2328 17.0262 27.2328C12.4666 27.2328 8.77026 30.8798 8.77026 35.3786C8.77026 39.8774 12.4666 43.5245 17.0262 43.5245Z" stroke="#404145" stroke-width="1.6" stroke-miterlimit="10" stroke-linecap="round"/><path d="M14.8857 32.0601V34.4736" stroke="#404145" stroke-width="1.6" stroke-miterlimit="10" stroke-linecap="round"/><path d="M19.167 32.0601V34.4736" stroke="#404145" stroke-width="1.6" stroke-miterlimit="10" stroke-linecap="round"/><path d="M20.6958 36.8873C20.0843 38.3354 18.6777 39.3008 16.9653 39.3008C15.3141 39.3008 13.8464 38.3354 13.2349 36.8873" stroke="#404145" stroke-width="1.6" stroke-miterlimit="10" stroke-linecap="round"/></svg>